<?xml version="1.0" standalone="no"?>
<!DOCTYPE svg PUBLIC "-//W3C//DTD SVG 20010904//EN"
 "http://www.w3.org/TR/2001/REC-SVG-20010904/DTD/svg10.dtd">
<svg version="1.0" xmlns="http://www.w3.org/2000/svg"
 width="512.000000pt" height="512.000000pt" viewBox="0 0 512.000000 512.000000"
 preserveAspectRatio="xMidYMid meet">
<metadata>
Created by potrace 1.11, written by Peter Selinger 2001-2013
</metadata>
<g transform="translate(0.000000,512.000000) scale(0.100000,-0.100000)"
fill="#000000" stroke="none">
<path d="M2405 4964 c-617 -46 -1139 -280 -1560 -699 -693 -690 -900 -1719
-529 -2630 276 -675 876 -1207 1580 -1400 540 -148 1096 -111 1602 106 590
253 1062 746 1298 1356 52 135 104 328 131 488 26 157 26 582 0 740 -42 254
-114 479 -224 703 -115 232 -254 427 -446 621 -374 379 -838 615 -1359 691
-123 18 -394 31 -493 24z m1145 -1189 c64 -33 61 41 58 -1235 l-3 -1160 -33
-32 -32 -33 -1013 0 c-996 0 -1012 0 -1039 20 -15 11 -31 30 -37 43 -8 16 -11
381 -11 1181 l0 1158 21 27 c12 15 31 32 43 36 11 5 470 9 1019 9 873 1 1002
-1 1027 -14z"/>
<path d="M1846 3324 c-13 -12 -16 -39 -16 -123 0 -92 3 -110 18 -124 17 -16
80 -17 694 -17 641 0 676 1 691 18 26 28 25 222 -1 245 -17 16 -80 17 -695 17
-601 0 -677 -2 -691 -16z"/>
<path d="M1873 2726 c-26 -23 -28 -29 -28 -101 0 -72 2 -78 28 -101 39 -33
150 -35 191 -3 24 19 26 26 26 104 0 78 -2 85 -26 104 -41 32 -152 30 -191 -3z"/>
<path d="M2228 2720 c-29 -29 -30 -34 -26 -102 3 -62 7 -73 31 -94 24 -20 39
-24 98 -24 61 0 73 3 94 25 22 22 25 33 25 104 0 74 -2 81 -26 100 -21 17 -41
21 -96 21 -64 0 -72 -2 -100 -30z"/>
<path d="M2616 2729 c-24 -19 -26 -26 -26 -99 0 -102 14 -121 93 -128 68 -5
101 2 127 28 16 16 20 34 20 95 0 67 -3 79 -25 100 -21 22 -33 25 -93 25 -55
0 -75 -4 -96 -21z"/>
<path d="M2975 2725 c-22 -21 -25 -33 -25 -98 0 -109 13 -122 120 -122 107 0
120 13 120 122 0 65 -3 77 -25 98 -21 22 -33 25 -95 25 -62 0 -74 -3 -95 -25z"/>
<path d="M1876 2339 c-24 -19 -26 -26 -26 -100 0 -108 11 -119 120 -119 108 0
120 12 120 115 0 67 -3 79 -25 100 -21 22 -33 25 -93 25 -55 0 -75 -4 -96 -21z"/>
<path d="M2236 2339 c-24 -19 -26 -26 -26 -100 0 -108 11 -119 120 -119 106 0
120 13 120 117 0 65 -3 77 -25 98 -21 22 -33 25 -93 25 -55 0 -75 -4 -96 -21z"/>
<path d="M2616 2339 c-24 -19 -26 -26 -26 -100 0 -108 11 -119 120 -119 106 0
120 13 120 117 0 65 -3 77 -25 98 -21 22 -33 25 -93 25 -55 0 -75 -4 -96 -21z"/>
<path d="M2976 2339 c-24 -19 -26 -26 -26 -100 0 -108 11 -119 120 -119 108 0
120 12 120 115 0 67 -3 79 -25 100 -21 22 -33 25 -93 25 -55 0 -75 -4 -96 -21z"/>
<path d="M1880 1968 c-34 -18 -50 -54 -50 -115 0 -98 28 -123 136 -123 56 0
68 4 89 25 22 21 25 33 25 94 0 59 -4 74 -24 97 -20 24 -32 28 -87 31 -40 3
-73 -1 -89 -9z"/>
<path d="M2253 1970 c-33 -13 -43 -42 -43 -124 0 -69 2 -76 26 -95 21 -17 41
-21 96 -21 60 0 72 3 93 25 22 21 25 33 25 95 0 84 -9 104 -51 119 -38 13
-115 13 -146 1z"/>
<path d="M2635 1968 c-38 -20 -45 -40 -45 -119 0 -72 2 -79 26 -98 21 -17 41
-21 96 -21 60 0 72 3 93 25 22 21 25 33 25 94 0 85 -5 98 -41 116 -33 17 -125
19 -154 3z"/>
<path d="M2995 1968 c-37 -20 -45 -40 -45 -115 0 -65 3 -77 25 -98 21 -22 33
-25 95 -25 62 0 74 3 95 25 22 21 25 33 25 94 0 85 -5 98 -41 116 -33 17 -125
19 -154 3z"/>
</g>
</svg>
